<?xml version="1.0" standalone="no"?>
<!DOCTYPE svg PUBLIC "-//W3C//DTD SVG 20010904//EN"
 "http://www.w3.org/TR/2001/REC-SVG-20010904/DTD/svg10.dtd">
<svg version="1.0" xmlns="http://www.w3.org/2000/svg"
 width="500.000000pt" height="500.000000pt" viewBox="0 0 500.000000 500.000000"
 preserveAspectRatio="xMidYMid meet">
<metadata>
Created by potrace 1.14, written by Peter Selinger 2001-2017
</metadata>
<g transform="translate(0.000000,500.000000) scale(0.100000,-0.100000)"
fill="#000000" stroke="none">
<path d="M1535 3478 c180 -216 241 -269 356 -309 63 -22 74 -23 532 -25 482
-3 496 -4 579 -45 46 -23 118 -92 145 -139 65 -111 63 -271 -4 -375 -38 -59
-101 -114 -163 -144 -53 -25 -61 -26 -282 -29 -126 -2 -228 -6 -228 -9 0 -4
113 -137 130 -153 3 -3 62 -70 130 -150 68 -80 127 -147 130 -150 3 -3 64 -72
134 -155 239 -279 272 -297 565 -303 l183 -4 -14 21 c-9 12 -28 36 -44 54 -16
17 -72 82 -124 142 -82 95 -122 141 -165 189 -5 6 -37 43 -70 81 -33 39 -68
79 -78 90 -10 11 -27 32 -37 46 l-19 25 32 19 c102 59 206 176 265 299 120
246 97 528 -62 749 -87 122 -227 226 -361 269 -115 36 -128 37 -848 38 l-709
0 27 -32z"/>
<path d="M1260 2951 c0 -5 3 -11 8 -13 7 -3 212 -237 401 -458 75 -88 168
-195 186 -214 6 -6 37 -42 70 -81 33 -38 65 -75 70 -81 6 -6 35 -39 65 -74 30
-35 69 -80 86 -99 18 -20 80 -92 139 -161 131 -152 174 -192 243 -226 88 -43
140 -52 319 -54 175 -1 175 -1 133 40 -3 3 -32 36 -65 75 -67 78 -192 222
-239 275 -17 19 -87 100 -156 180 -68 80 -136 159 -151 175 -15 17 -36 40 -46
52 -10 12 -25 30 -33 40 -47 56 -160 183 -192 218 l-37 40 363 5 363 5 -96
111 c-53 61 -112 125 -131 142 -51 44 -146 89 -214 101 -75 14 -1086 15 -1086
2z"/>
</g>
</svg>
